<?xml version="1.0" encoding="iso-8859-1"?>
<!-- Uploaded to: SVG Repo, www.svgrepo.com, Generator: SVG Repo Mixer Tools -->
<svg version="1.1" id="Layer_1" xmlns="http://www.w3.org/2000/svg" xmlns:xlink="http://www.w3.org/1999/xlink" 
	 viewBox="0 0 286.17 286.17" xml:space="preserve">
<g>
	<rect x="29.176" y="29.176" style="fill:#FF7876;" width="75.939" height="75.939"/>
	<rect x="181.055" y="29.176" style="fill:#FF7876;" width="75.939" height="75.939"/>
	<rect x="29.176" y="181.055" style="fill:#FF7876;" width="75.939" height="75.939"/>
	<rect x="105.115" y="181.055" style="fill:#FFFFFF;" width="75.94" height="75.939"/>
	<rect x="181.055" y="181.055" style="fill:#FF7876;" width="75.939" height="75.939"/>
	<rect x="105.115" y="29.176" style="fill:#FFFFFF;" width="75.94" height="75.939"/>
	<rect x="181.055" y="105.115" style="fill:#FFFFFF;" width="75.939" height="75.94"/>
	<rect x="105.115" y="105.115" style="fill:#FF7876;" width="75.94" height="75.94"/>
	<rect x="29.176" y="105.115" style="fill:#FFFFFF;" width="75.939" height="75.94"/>
	<path style="fill:#414042;" d="M278.67,112.615c4.142,0,7.5-3.358,7.5-7.5s-3.358-7.5-7.5-7.5h-14.176v-60.94h14.176
		c4.142,0,7.5-3.358,7.5-7.5s-3.358-7.5-7.5-7.5h-14.176V7.5c0-4.142-3.357-7.5-7.5-7.5s-7.5,3.358-7.5,7.5v14.176h-60.939V7.5
		c0-4.142-3.357-7.5-7.5-7.5s-7.5,3.358-7.5,7.5v14.176h-60.939V7.5c0-4.142-3.357-7.5-7.5-7.5s-7.5,3.358-7.5,7.5v14.176h-60.94
		V7.5c0-4.142-3.357-7.5-7.5-7.5s-7.5,3.358-7.5,7.5v14.176H7.5c-4.142,0-7.5,3.358-7.5,7.5s3.358,7.5,7.5,7.5h14.176v60.94H7.5
		c-4.142,0-7.5,3.358-7.5,7.5s3.358,7.5,7.5,7.5h14.176v60.939H7.5c-4.142,0-7.5,3.358-7.5,7.5s3.358,7.5,7.5,7.5h14.176v60.939H7.5
		c-4.142,0-7.5,3.358-7.5,7.5c0,4.142,3.358,7.5,7.5,7.5h14.176v14.176c0,4.142,3.357,7.5,7.5,7.5s7.5-3.358,7.5-7.5v-14.176h60.94
		v14.176c0,4.142,3.357,7.5,7.5,7.5s7.5-3.358,7.5-7.5v-14.176h60.939v14.176c0,4.142,3.357,7.5,7.5,7.5s7.5-3.358,7.5-7.5v-14.176
		h60.939v14.176c0,4.142,3.357,7.5,7.5,7.5s7.5-3.358,7.5-7.5v-14.176h14.176c4.142,0,7.5-3.358,7.5-7.5c0-4.142-3.358-7.5-7.5-7.5
		h-14.176v-60.939h14.176c4.142,0,7.5-3.358,7.5-7.5s-3.358-7.5-7.5-7.5h-14.176v-60.939L278.67,112.615L278.67,112.615z
		 M249.494,173.555h-60.939v-60.939h60.939V173.555z M36.676,112.615h60.94v60.939h-60.94V112.615z M112.615,112.615h60.939v60.939
		h-60.939C112.615,173.554,112.615,112.615,112.615,112.615z M249.494,97.615h-60.939v-60.94h60.939V97.615z M173.555,97.615
		h-60.939v-60.94h60.939V97.615z M97.615,97.615h-60.94v-60.94h60.94V97.615z M36.676,188.555h60.94v60.939h-60.94V188.555z
		 M112.615,188.555h60.939v60.939h-60.939C112.615,249.494,112.615,188.555,112.615,188.555z M188.555,188.555h60.939v60.939
		h-60.939V188.555z"/>
</g>
</svg>